REM DIRINDEX 1\2,1\3,1\4,1\5
REM DIRNAME folder01,folder02,folder03,folder04,folder05
TITLE ""
FILE "Round-09-210-211.mp3" MP3
  TRACK 01 AUDIO
    TITLE "0:"
    INDEX 01 00:00:00
  TRACK 02 AUDIO
    TITLE "2:cjc093_2351"
    INDEX 01 00:00:01
  TRACK 03 AUDIO
    TITLE "0:"
    INDEX 01 00:01:11
  TRACK 04 AUDIO
    TITLE "3:cjc093_2352"
    INDEX 01 00:01:38
  TRACK 05 AUDIO
    TITLE "0:"
    INDEX 01 00:03:12
  TRACK 06 AUDIO
    TITLE "4:cjc093_2353"
    INDEX 01 00:03:33
  TRACK 07 AUDIO
    TITLE "0:"
    INDEX 01 00:06:43
  TRACK 08 AUDIO
    TITLE "4:cjc093_2354"
    INDEX 01 00:07:31
  TRACK 09 AUDIO
    TITLE "0:"
    INDEX 01 00:09:47
  TRACK 10 AUDIO
    TITLE "2:cjc093_2355"
    INDEX 01 00:10:59
  TRACK 11 AUDIO
    TITLE "0:"
    INDEX 01 00:11:70
  TRACK 12 AUDIO
    TITLE "3:cjc093_2356"
    INDEX 01 00:12:26
  TRACK 13 AUDIO
    TITLE "0:"
    INDEX 01 00:14:17
  TRACK 14 AUDIO
    TITLE "4:cjc093_2357"
    INDEX 01 00:14:27
  TRACK 15 AUDIO
    TITLE "0:"
    INDEX 01 00:17:04
  TRACK 16 AUDIO
    TITLE "3:cjc093_2358"
    INDEX 01 00:18:17
  TRACK 17 AUDIO
    TITLE "0:"
    INDEX 01 00:20:10
  TRACK 18 AUDIO
    TITLE "4:cjc093_2359"
    INDEX 01 00:20:30
  TRACK 19 AUDIO
    TITLE "0:"
    INDEX 01 00:24:08
  TRACK 20 AUDIO
    TITLE "2:cjc093_2360"
    INDEX 01 00:25:21
  TRACK 21 AUDIO
    TITLE "0:"
    INDEX 01 00:26:18
  TRACK 22 AUDIO
    TITLE "3:cjc093_2361"
    INDEX 01 00:26:54
  TRACK 23 AUDIO
    TITLE "0:"
    INDEX 01 00:29:11
  TRACK 24 AUDIO
    TITLE "4:cjc093_2362"
    INDEX 01 00:29:60
  TRACK 25 AUDIO
    TITLE "0:"
    INDEX 01 00:32:27
  TRACK 26 AUDIO
    TITLE "2:cjc093_2363"
    INDEX 01 00:33:42
  TRACK 27 AUDIO
    TITLE "0:"
    INDEX 01 00:34:47
  TRACK 28 AUDIO
    TITLE "3:cjc093_2364"
    INDEX 01 00:35:04
  TRACK 29 AUDIO
    TITLE "0:"
    INDEX 01 00:35:74
  TRACK 30 AUDIO
    TITLE "4:cjc093_2365"
    INDEX 01 00:36:50
  TRACK 31 AUDIO
    TITLE "0:"
    INDEX 01 00:38:71
  TRACK 32 AUDIO
    TITLE "3:cjc093_2366"
    INDEX 01 00:40:13
  TRACK 33 AUDIO
    TITLE "0:"
    INDEX 01 00:41:34
  TRACK 34 AUDIO
    TITLE "4:cjc093_2367"
    INDEX 01 00:42:06
  TRACK 35 AUDIO
    TITLE "0:"
    INDEX 01 00:44:50
  TRACK 36 AUDIO
    TITLE "2:cjc093_2368"
    INDEX 01 00:45:63
  TRACK 37 AUDIO
    TITLE "0:"
    INDEX 01 00:46:64
  TRACK 38 AUDIO
    TITLE "2:cjc093_2369"
    INDEX 01 00:47:62
  TRACK 39 AUDIO
    TITLE "0:"
    INDEX 01 00:49:49
  TRACK 40 AUDIO
    TITLE "3:cjc093_2370"
    INDEX 01 00:50:13
  TRACK 41 AUDIO
    TITLE "0:"
    INDEX 01 00:52:51
  TRACK 42 AUDIO
    TITLE "4:cjc093_2371"
    INDEX 01 00:53:04
  TRACK 43 AUDIO
    TITLE "0:"
    INDEX 01 00:56:31
  TRACK 44 AUDIO
    TITLE "2:cjc093_2372"
    INDEX 01 00:57:45
  TRACK 45 AUDIO
    TITLE "0:"
    INDEX 01 00:58:54
  TRACK 46 AUDIO
    TITLE "3:cjc093_2373"
    INDEX 01 00:59:16
  TRACK 47 AUDIO
    TITLE "0:"
    INDEX 01 01:00:33
  TRACK 48 AUDIO
    TITLE "4:cjc093_2374"
    INDEX 01 01:00:53
  TRACK 49 AUDIO
    TITLE "0:"
    INDEX 01 01:03:47
  TRACK 50 AUDIO
    TITLE "2:cjc093_2375"
    INDEX 01 01:04:60
  TRACK 51 AUDIO
    TITLE "0:"
    INDEX 01 01:06:00
  TRACK 52 AUDIO
    TITLE "3:cjc093_2376"
    INDEX 01 01:06:55
  TRACK 53 AUDIO
    TITLE "0:"
    INDEX 01 01:08:60
  TRACK 54 AUDIO
    TITLE "4:cjc093_2377"
    INDEX 01 01:09:10
  TRACK 55 AUDIO
    TITLE "0:"
    INDEX 01 01:12:40
  TRACK 56 AUDIO
    TITLE "3:cjc093_2378"
    INDEX 01 01:13:51
  TRACK 57 AUDIO
    TITLE "0:"
    INDEX 01 01:15:33
  TRACK 58 AUDIO
    TITLE "4:cjc093_2379"
    INDEX 01 01:15:52
  TRACK 59 AUDIO
    TITLE "0:"
    INDEX 01 01:18:53
  TRACK 60 AUDIO
    TITLE "2:cjc093_2380"
    INDEX 01 01:19:64
  TRACK 61 AUDIO
    TITLE "0:"
    INDEX 01 01:20:71
  TRACK 62 AUDIO
    TITLE "3:cjc093_2381"
    INDEX 01 01:21:45
  TRACK 63 AUDIO
    TITLE "0:"
    INDEX 01 01:23:18
  TRACK 64 AUDIO
    TITLE "4:cjc093_2382"
    INDEX 01 01:23:36
  TRACK 65 AUDIO
    TITLE "0:"
    INDEX 01 01:26:07
